<svg height="512" viewBox="0 0 512 512" width="512" xmlns="http://www.w3.org/2000/svg"><path d="m320 334h-128l-80.769 20.513a60 60 0 0 0 -45.231 58.154v89.333h380v-89.333a60 60 0 0 0 -45.231-58.154z" fill="#6e83b7"/><path d="m220.552 408.948 35.448 93.052 35.448-93.052-35.448-33.76z" fill="#edeff1"/><path d="m256 502 64-168 24 62-46 54 4 25z" fill="#466089"/><path d="m256 502-64-168-24 62 46 54-4 25z" fill="#466089"/><path d="m300 294.188v25l-44 56-44-56v-25z" fill="#ffd3b3"/><path d="m212 312.188c13.5 5.851 28.376 9.812 44 9.812s30.5-3.961 44-9.812v-18h-88z" fill="#fcb98b"/><path d="m347 117v98.188a91 91 0 0 1 -91 91 91 91 0 0 1 -91-91v-98.188z" fill="#ffd3b3"/><path d="m183 152-18 55.182v-55.182z" fill="#466089"/><path d="m329 152 18 55.182v-55.182z" fill="#466089"/><path d="m141 153h14a10 10 0 0 1 10 10v29a10 10 0 0 1 -10 10h-14a0 0 0 0 1 0 0v-49a0 0 0 0 1 0 0z" fill="#ffd3b3" transform="matrix(-1 0 0 -1 306 355)"/><path d="m347 153h14a10 10 0 0 1 10 10v29a10 10 0 0 1 -10 10h-14a0 0 0 0 1 0 0v-49a0 0 0 0 1 0 0z" fill="#ffd3b3"/><path d="m212 319.188-20 14.812 28.552 74.948 35.448-33.76z" fill="#edeff1"/><path d="m220.552 408.948 3.86 10.134 31.588-30.085 31.588 30.085 3.86-10.134-35.448-33.76z" fill="#d3d3d3"/><path d="m300 319.188 20 14.812-28.552 74.948-35.448-33.76z" fill="#edeff1"/><path d="m122 462h10v40h-10z" fill="#466089"/><path d="m380 462h10v40h-10z" fill="#466089"/><path d="m256 426h10l17.334-24.78-27.334-26.032-27.334 26.032 17.334 24.78z" fill="#6e83b7"/><path d="m277.536 409.508 5.798-8.288-27.334-26.032-27.334 26.032 5.798 8.288 21.536-20.511z" fill="#466089"/><path d="m273.614 455.764-7.614-29.764h-20l-7.609 29.776 17.609 46.224z" fill="#6e83b7"/><path d="m256 136.19h90.022l44.978-54.19-47-49-88-23-88 23-47 49 44.978 54.19z" fill="#d3d3d3"/><path d="m256 10-88 23 41.342 103.19h46.658 46.658l41.342-103.19z" fill="#edeff1"/><path d="m165 152s8.663 11 91 11 91-11 91-11v-16h-182z" fill="#6e83b7"/><path d="m256 137c-56.538 0-91 16-91 16v-30s34.462-16 91-16 91 16 91 16v30s-34.462-16-91-16z" fill="#466089"/><path d="m347 126h6v21h-6z" fill="#ffe352"/><path d="m159 126h6v21h-6z" fill="#ffe352"/><path d="m268 64v12 12h24l10-12h6l10-12z" fill="#ffb236"/><path d="m194 64 10 12h6l10 12h24v-12-12z" fill="#ffb236"/><circle cx="256" cy="76" fill="#ffe352" r="20"/><circle cx="256" cy="76" fill="#ffb236" r="12"/><path d="m109.573 339.089h64v20h-64z" fill="#466089" transform="matrix(.972 -.235 .235 .972 -78.088 43.058)"/><path d="m152.125 335.328h10v20h-10z" fill="#ffe352" transform="matrix(.972 -.235 .235 .972 -76.769 46.608)"/><path d="m121.022 342.85h10v20h-10z" fill="#ffe352" transform="matrix(.972 -.235 .235 .972 -79.408 39.508)"/><path d="m338.427 339.089h64v20h-64z" fill="#466089" transform="matrix(-.972 -.235 .235 -.972 648.42 775.468)"/><g fill="#ffe352"><path d="m344.875 340.328h20v10h-20z" transform="matrix(.235 -.972 .972 .235 -64.193 609.089)"/><path d="m375.978 347.85h20v10h-20z" transform="matrix(.235 -.972 .972 .235 -47.712 645.075)"/></g></svg>