<svg viewBox="0 0 500 500" xmlns="http://www.w3.org/2000/svg"><g transform="scale(7.8125)"><g fill="#0A165C"><path d="M58 17.5h-9.89l-15.9-7.95c-.15-.07-.31-.07-.45 0l-15.9 7.94H5.97c-.28 0-.5.22-.5.5v36c0 .27.22.5.5.5h52c.27 0 .5-.23.5-.5v-36c0-.28-.23-.5-.5-.5Zm-26-6.95l13.88 6.94H18.11l13.88-6.95Zm25.5 42.941h-51v-35h51v35Z"/><path d="M37.5 32c0 1.76.72 3.45 2 4.68v11.31c0 .2.12.38.3.46 .18.07.4.03.54-.11l3.64-3.65 3.64 3.64c.09.09.22.14.35.14 .06 0 .13-.02.19-.04 .18-.08.3-.26.3-.47V36.64c1.27-1.23 2-2.92 2-4.69 0-3.59-2.92-6.5-6.5-6.5 -3.59 0-6.5 2.91-6.5 6.5Zm6.85 11.646c-.1-.1-.23-.15-.36-.15 -.13 0-.26.04-.36.14l-3.15 3.14v-9.33c1.04.66 2.24 1.03 3.5 1.03 1.25 0 2.45-.37 3.5-1.04v9.33l-3.15-3.15ZM49.49 32c0 1.55-.67 3.04-1.84 4.09 -.01 0-.01.01-.02.01 -1.01.89-2.31 1.39-3.66 1.39s-2.65-.5-3.66-1.4c-.01-.01-.01-.02-.02-.02 -1.17-1.05-1.84-2.54-1.84-4.09 0-3.04 2.46-5.5 5.5-5.5 3.03 0 5.5 2.46 5.5 5.5Z"/><path d="M32 27.5H14c-.28 0-.5.22-.5.5 0 .27.22.5.5.5h18c.27 0 .5-.23.5-.5 0-.28-.23-.5-.5-.5Z"/><path d="M26 31.5H14c-.28 0-.5.22-.5.5 0 .27.22.5.5.5h12c.27 0 .5-.23.5-.5 0-.28-.23-.5-.5-.5Z"/><path d="M26 35.5H14c-.28 0-.5.22-.5.5 0 .27.22.5.5.5h12c.27 0 .5-.23.5-.5 0-.28-.23-.5-.5-.5Z"/><path d="M23.25 41.965c-.28-.05-.54.13-.58.4 -.03.17-.09.31-.19.43 -.85-.11-1.43.37-1.9.76 -.3.24-.53.42-.78.5 -.02-.17-.04-.35-.02-.48 0-.04.01-.07.02-.11 .05-.27-.11-.53-.37-.6 -.26-.07-.53.08-.61.34 -.02.05-.03.1-.04.15 -.17.65-.47 1.311-.86 1.84 -.59-.82-.53-2.1-.49-3.25 .01-.24.01-.47.02-.68 0-.23-.15-.44-.37-.5 -.23-.06-.46.03-.57.23 -.23.4-.39.81-.54 1.22 -.08.18-.14.37-.22.55 -.15-.43-.08-1.2-.03-1.68 .01-.19.03-.36.04-.5 .01-.23-.13-.43-.35-.5 -.21-.07-.45.01-.58.19 -.96 1.42-1.43 2.65-1.44 3.76 -.01.27.22.5.49.5 0 0 0 0 0 0 .27 0 .49-.23.5-.5 0-.44.09-.9.28-1.4 .09.66.38 1.24 1.11 1.39 .21.04.42-.06.53-.24 .02-.04.04-.08.06-.11 .08.99.36 1.95 1.189 2.61 .09.07.2.11.31.11 .13 0 .26-.06.36-.16 .33-.36.63-.79.88-1.26 .01 0 .02 0 .03 0 .87.14 1.47-.36 1.95-.75 .5-.42.8-.65 1.29-.52 .15.04.31 0 .44-.1 .375-.31.6-.71.69-1.21 .04-.28-.14-.53-.41-.58Z"/></g></g></svg>