<svg viewBox="0 0 500 500" xmlns="http://www.w3.org/2000/svg"><g transform="scale(7.8125)"><path fill="#0A165C" d="M51.552 12.449c-.9-.9-1.88-1.35-2.91-1.35 -1.47 0-2.97.85-4.88 2.763l-4.96 4.95 -21.48-3.69c-.16-.03-.33.02-.44.13L11.22 20.9c-.13.12-.18.29-.14.46 .03.16.16.3.32.36l18.146 6.29 -11.16 11.15 -6.923 1.38c-.21.04-.359.2-.4.4 -.04.2.05.4.23.51l6.964 4.17 4.17 6.96c.09.15.25.24.42.24 .02 0 .05-.01.08-.01 .2-.04.36-.2.4-.4l1.38-6.93 11.15-11.16 6.29 18.14c.05.16.19.28.36.32 .16.03.34-.02.46-.14l5.65-5.66c.11-.12.16-.28.14-.44L45.07 25.06l4.96-4.959c1.97-1.98 4.26-4.93 1.41-7.78Zm-7.27 12.213c-.12.11-.17.27-.14.43l3.686 21.47 -4.91 4.9 -6.3-18.15c-.06-.17-.2-.29-.36-.33 -.04-.01-.08-.02-.12-.02 -.14 0-.26.05-.36.14l-11.83 11.83c-.07.06-.12.15-.14.25l-1.17 5.802 -3.58-5.97c-.05-.07-.11-.13-.18-.18l-5.962-3.58 5.8-1.16c.09-.02.18-.07.25-.14l11.828-11.828c.12-.13.17-.3.13-.47 -.04-.17-.17-.31-.33-.36l-18.146-6.3 4.9-4.91 21.472 3.68c.15.02.32-.03.43-.14l5.14-5.15c2.8-2.8 4.58-3.2 6.36-1.42 1.75 1.75 1.34 3.6-1.42 6.36l-5.15 5.14Z"/></g></svg>