<svg viewBox="0 0 500 500" xmlns="http://www.w3.org/2000/svg"><g transform="scale(7.8125)"><g fill="#0A165C"><path d="M22.8 38.37c-.2-.2-.52-.2-.71 0L10.776 49.68c-.2.19-.2.51 0 .7 .09.09.22.14.35.14 .12 0 .25-.05.35-.15l11.31-11.32c.19-.2.19-.52 0-.71Z"/><path d="M24.921 41.19L13.607 52.5c-.2.19-.2.51 0 .7 .09.09.22.14.35.14 .12 0 .25-.05.35-.15L25.61 41.87c.19-.2.19-.52 0-.71 -.2-.2-.52-.2-.71-.01Z"/><path d="M42.82 36.45l-5.88-5.88L49.58 17.93h2.62c.13 0 .26-.06.35-.15l4.24-4.243c.09-.1.14-.23.14-.36 0-.14-.06-.26-.15-.36L51.12 7.16c-.2-.2-.52-.2-.71 0L46.16 11.4c-.1.09-.15.22-.15.35v2.62L33.37 27c-1.16-1.16-4.91-4.91-5.88-5.88 1.35-3.82.4-8.077-2.47-10.95 -2.68-2.68-6.61-3.71-10.255-2.69 -.18.04-.31.18-.35.35 -.05.17 0 .35.13.48l3.95 3.958 -1.314 4.9 -4.907 1.31 -3.96-3.96c-.13-.13-.31-.18-.48-.13 -.18.04-.31.17-.36.34 -1.02 3.65 0 7.58 2.68 10.255 2.872 2.87 7.13 3.81 10.94 2.46l5.87 5.87 -1.939 1.939c-.81-.46-1.72-.72-2.67-.72 -1.47 0-2.85.57-3.89 1.61l-9.9 9.89c-2.144 2.14-2.144 5.63 0 7.77l1.41 1.41c1.03 1.03 2.41 1.61 3.88 1.61 1.47 0 2.85-.58 3.88-1.62l9.89-9.9c1.03-1.04 1.61-2.42 1.61-3.89 0-.96-.27-1.86-.72-2.67L30.45 36.8l5.87 5.87c-1.36 3.81-.41 8.07 2.46 10.948 1.99 1.99 4.67 3.06 7.42 3.06 .94 0 1.89-.13 2.82-.39 .17-.05.3-.19.34-.36 .04-.18-.01-.36-.13-.48l-3.96-3.96 1.314-4.91 4.9-1.314 3.95 3.95c.125.125.3.17.48.13 .17-.05.3-.18.35-.35 1.01-3.66-.01-7.59-2.683-10.256 -2.88-2.88-7.14-3.82-10.95-2.47ZM21.65 26.6c-.14-.15-.35-.19-.54-.12 -3.52 1.37-7.516.54-10.185-2.13 -2.21-2.22-3.18-5.372-2.63-8.422l3.52 3.52c.12.12.31.17.48.12l5.46-1.47c.17-.05.3-.19.35-.36l1.46-5.47c.04-.18-.01-.36-.13-.49L15.9 8.24c3.05-.56 6.21.41 8.42 2.62 2.66 2.66 3.5 6.666 2.128 10.17 -.125.3-.12.32 6.2 6.64l-4.95 4.95 -6.1-6.099ZM46.89 14.96c.09-.1.14-.23.14-.36v-2.63l3.74-3.75 4.95 4.94 -3.75 3.74h-2.63c-.14 0-.26.05-.36.14L28.05 37.96l-2.122-2.13L46.85 14.9ZM27.026 44.726l-9.9 9.9c-.85.85-1.98 1.31-3.19 1.31s-2.34-.47-3.19-1.32l-1.42-1.42c-1.76-1.76-1.76-4.61 0-6.37l9.9-9.9c.85-.86 1.97-1.32 3.18-1.32 1.2 0 2.33.46 3.18 1.31l1.41 1.41c.85.85 1.31 1.98 1.31 3.183 0 1.2-.47 2.33-1.32 3.18Zm28.64 3.31l-3.53-3.53c-.13-.13-.31-.18-.49-.13l-5.47 1.46c-.18.04-.31.18-.36.35l-1.47 5.46c-.05.17 0 .35.13.48l3.52 3.52c-3.06.55-6.22-.42-8.424-2.63 -2.67-2.67-3.51-6.67-2.13-10.19 .07-.19.02-.4-.12-.54l-6.099-6.1 4.95-4.95 6.09 6.099c.14.14.35.18.53.11 3.52-1.38 7.51-.55 10.18 2.12 2.21 2.21 3.17 5.37 2.62 8.42Z"/></g></g></svg>