<svg id="Layer_1" enable-background="new 0 0 24 24" height="512" viewBox="0 0 24 24" width="512" xmlns="http://www.w3.org/2000/svg"><g><path d="m3 23.994c-.769 0-1.537-.29-2.122-.869-1.162-1.174-1.162-3.076-.003-4.246l9.531-9.521c-.27-.744-.406-1.536-.406-2.358 0-3.859 3.14-7 7-7 .934 0 1.831.178 2.664.529.153.064.264.201.296.365.032.163-.02.332-.137.449l-3.049 3.05.568 2.265 2.264.568 3.05-3.05c.117-.118.284-.172.45-.137.163.031.3.143.365.296.351.834.529 1.73.529 2.665 0 3.859-3.14 7-7 7-.823 0-1.614-.137-2.357-.405l-9.519 9.528c-.586.58-1.356.871-2.124.871zm14-22.994c-3.309 0-6 2.691-6 6 0 .807.152 1.575.451 2.286.079.188.036.404-.107.548l-9.76 9.75c-.772.78-.772 2.052.002 2.834.779.771 2.052.77 2.833-.004l9.749-9.758c.144-.144.359-.187.548-.107.708.3 1.477.451 2.284.451 3.309 0 6-2.691 6-6 0-.534-.068-1.054-.202-1.551l-2.685 2.685c-.124.125-.305.175-.475.132l-2.83-.71c-.179-.045-.318-.185-.363-.363l-.71-2.83c-.043-.171.007-.352.131-.476l2.685-2.685c-.497-.135-1.016-.202-1.551-.202z"/></g></svg>