<?xml version="1.0" encoding="utf-8"?>
<!-- Generator: Adobe Illustrator 25.0.1, SVG Export Plug-In . SVG Version: 6.00 Build 0)  -->
<svg version="1.1" id="Calque_1" xmlns="http://www.w3.org/2000/svg" xmlns:xlink="http://www.w3.org/1999/xlink" x="0px" y="0px"
	 viewBox="0 0 54.5 46.5" style="enable-background:new 0 0 54.5 46.5;" xml:space="preserve">
<style type="text/css">
	.st0{stroke:#1F285C;stroke-width:1.5;stroke-miterlimit:10;}
	.st1{fill:#1F285C;stroke:#1F285C;stroke-miterlimit:10;}
</style>
<g id="Ebene_1">
	<path class="st0" d="M53.2,12.7h-7.8L27.5,0.8c-0.2-0.1-0.3-0.1-0.5,0L7.1,12.7H1.2c-0.3,0-0.5,0.2-0.5,0.4c0,0,0,0,0,0.1v32
		c0,0.3,0.2,0.5,0.4,0.5c0,0,0,0,0.1,0h52c0.3,0,0.5-0.2,0.5-0.4c0,0,0,0,0-0.1v-32C53.8,13,53.6,12.7,53.2,12.7
		C53.3,12.7,53.3,12.7,53.2,12.7z M27.2,1.8l16.4,10.9H9.1L27.2,1.8z M52.8,44.7h-51v-31h51V44.7z"/>
	<path class="st0" d="M40.8,29c0,0.1-0.1,0.1-0.1,0.2v6c0,0.3,0.2,0.5,0.5,0.5s0.5-0.2,0.5-0.5v-5.8c1,0.4,2,0.4,3,0v7.8
		c0,0.3,0.2,0.5,0.5,0.5s0.5-0.2,0.5-0.5v-8c0-0.1,0-0.2-0.1-0.2c1.3-0.8,2.1-2.3,2.1-3.8c0-2.5-2-4.5-4.5-4.5s-4.5,2-4.5,4.5
		C38.7,26.8,39.5,28.2,40.8,29z M43.2,21.7c1.9,0,3.5,1.6,3.5,3.5s-1.6,3.5-3.5,3.5s-3.5-1.6-3.5-3.5C39.8,23.3,41.3,21.7,43.2,21.7
		z"/>
	<path class="st0" d="M11.2,21.7h16c0.3,0,0.5-0.2,0.5-0.5s-0.2-0.5-0.5-0.5h-16c-0.3,0-0.5,0.2-0.5,0.5S11,21.7,11.2,21.7z"/>
	<path class="st0" d="M11.2,25.7h16c0.3,0,0.5-0.2,0.5-0.5s-0.2-0.5-0.5-0.5h-16c-0.3,0-0.5,0.2-0.5,0.5S11,25.7,11.2,25.7z"/>
	<path class="st0" d="M11.2,29.7h16c0.3,0,0.5-0.2,0.5-0.5s-0.2-0.5-0.5-0.5h-16c-0.3,0-0.5,0.2-0.5,0.5S11,29.7,11.2,29.7z"/>
	<path class="st1" d="M19.9,36.7c-0.5,0.1-1-0.1-1.4-0.4c-0.4-0.3-0.8-0.4-1.3-0.5c-0.4,0-0.8,0.1-1.2,0.3c-0.1,0.1-0.2,0.1-0.3,0.1
		c-0.1-0.1-0.2-0.3-0.2-0.4c-0.1-0.2-0.2-0.3-0.4-0.3c-0.2,0-0.3,0-0.5,0.1c-0.6,0.5-0.9,0.6-1,0.6s-0.2-0.2-0.2-0.7
		c0-0.2-0.2-0.4-0.4-0.4c-0.2-0.1-0.4,0-0.5,0.2c0,0,0,0,0,0c-0.4,0.5-0.8,0.9-1.2,1.3c-0.2,0.2-0.2,0.5,0,0.7s0.5,0.2,0.7,0
		l0.6-0.6c0.1,0.3,0.3,0.5,0.6,0.6c0.6,0.1,1.2,0,1.6-0.4c0.1,0.2,0.3,0.3,0.5,0.4c0.4,0.1,0.8,0.1,1.1-0.2c0.2-0.1,0.5-0.2,0.7-0.2
		c0.3,0,0.6,0.2,0.9,0.4c0.4,0.4,1,0.6,1.6,0.6c0.2,0,0.4,0,0.6-0.1c0.3-0.1,0.4-0.3,0.4-0.6C20.4,36.9,20.2,36.7,19.9,36.7z"/>
</g>
</svg>
