<?xml version="1.0" encoding="utf-8"?>
<!-- Generator: Adobe Illustrator 25.0.1, SVG Export Plug-In . SVG Version: 6.00 Build 0)  -->
<svg version="1.1" id="Layer_1" xmlns="http://www.w3.org/2000/svg" xmlns:xlink="http://www.w3.org/1999/xlink" x="0px" y="0px"
	 viewBox="0 0 120.6 33.8" style="enable-background:new 0 0 120.6 33.8;" xml:space="preserve">
<style type="text/css">
	.st0{fill:#F9F8F8;}
</style>
<g>
	<g>
		<path class="st0" d="M14,15.1V5.5c0-2.7,1.7-4,5.1-4h13.1v3H19c-0.7,0-1,0.3-1,1v3.3h10.6v3H18v3.3c0,0.7,0.3,1,1,1h13.1v3H19
			C15.7,19.1,14,17.8,14,15.1"/>
	</g>
	<rect x="34.2" y="16.1" class="st0" width="3" height="3"/>
	<rect x="61.5" y="16.1" class="st0" width="3" height="3"/>
	<polygon class="st0" points="66.5,4.4 66.5,1.4 82.7,1.4 82.7,4.4 76.6,4.4 76.6,19.1 72.6,19.1 72.6,4.4 	"/>
	<rect x="84.7" y="16.1" class="st0" width="3" height="3"/>
	<rect x="89.8" y="1.4" class="st0" width="4" height="17.7"/>
	<rect x="95.8" y="16.1" class="st0" width="3" height="3"/>
	<g>
		<path class="st0" d="M100.9,19.1v-3h13.6c1.3,0,2-0.7,2-2c0-1.5-0.7-2.3-2-2.3h-8.6c-3,0-4.7-1.8-5.1-5.3c0.3-3.4,2-5.1,5.1-5.1
			h14.6v3H107c-1.3,0-2,0.7-2,2c0,1.5,0.7,2.3,2,2.3h7.6c3.7,0,5.7,1.8,6.1,5.3c-0.3,3.4-2.4,5.1-6.1,5.1L100.9,19.1L100.9,19.1z"/>
	</g>
	<polygon class="st0" points="14,28.6 16.8,28.6 16.8,29.1 14.7,29.1 14.7,30.9 16.6,30.9 16.6,31.4 14.7,31.4 14.7,33.7 14,33.7 	
		"/>
	<polygon class="st0" points="21.5,28.6 22.2,28.6 22.2,33.2 24.4,33.2 24.4,33.7 21.5,33.7 	"/>
	<rect x="29" y="28.6" class="st0" width="0.7" height="5.2"/>
	<g>
		<path class="st0" d="M38.6,33.5c-0.3,0.1-0.9,0.3-1.6,0.3c-0.8,0-1.4-0.2-1.9-0.7c-0.4-0.4-0.7-1.1-0.7-1.9c0-1.5,1.1-2.7,2.8-2.7
			c0.6,0,1.1,0.1,1.3,0.2l-0.2,0.5c-0.3-0.1-0.6-0.2-1.1-0.2c-1.3,0-2.1,0.8-2.1,2.1c0,1.3,0.8,2.1,2,2.1c0.4,0,0.7-0.1,0.9-0.1
			v-1.5h-1V31h1.7V33.5z"/>
	</g>
	<polygon class="st0" points="44.1,28.6 44.1,30.7 46.6,30.7 46.6,28.6 47.3,28.6 47.3,33.7 46.6,33.7 46.6,31.3 44.1,31.3 
		44.1,33.7 43.4,33.7 43.4,28.6 	"/>
	<polygon class="st0" points="53.2,29.2 51.6,29.2 51.6,28.6 55.5,28.6 55.5,29.2 53.9,29.2 53.9,33.7 53.2,33.7 	"/>
	<g>
		<path class="st0" d="M67.9,31.6l-0.5-1.5c-0.1-0.3-0.2-0.6-0.3-0.9h0c-0.1,0.3-0.2,0.6-0.3,0.9l-0.5,1.5
			C66.3,31.6,67.9,31.6,67.9,31.6z M66.2,32.1l-0.5,1.6h-0.7l1.8-5.2h0.8l1.8,5.2h-0.7L68,32.1H66.2z"/>
		<path class="st0" d="M77.3,33.6c-0.2,0.1-0.7,0.2-1.4,0.2c-1.5,0-2.6-0.9-2.6-2.6c0-1.6,1.1-2.7,2.7-2.7c0.6,0,1.1,0.1,1.2,0.2
			l-0.2,0.5c-0.3-0.1-0.6-0.2-1-0.2c-1.2,0-2,0.8-2,2.1c0,1.3,0.7,2.1,2,2.1c0.4,0,0.8-0.1,1.1-0.2L77.3,33.6z"/>
		<path class="st0" d="M84.5,31.6L84,30.1c-0.1-0.3-0.2-0.6-0.3-0.9h0c-0.1,0.3-0.2,0.6-0.3,0.9L83,31.6
			C83,31.6,84.5,31.6,84.5,31.6z M82.9,32.1l-0.5,1.6h-0.7l1.8-5.2h0.8l1.8,5.2h-0.7l-0.6-1.6H82.9z"/>
		<path class="st0" d="M91.2,33.2c0.2,0,0.4,0,0.7,0c1.4,0,2.2-0.8,2.2-2.2c0-1.2-0.7-2-2.1-2c-0.3,0-0.6,0-0.8,0.1L91.2,33.2
			L91.2,33.2z M90.5,28.7c0.4-0.1,0.9-0.1,1.4-0.1c1,0,1.6,0.2,2.1,0.6c0.5,0.4,0.7,1,0.7,1.9c0,0.8-0.3,1.5-0.7,2
			c-0.5,0.5-1.3,0.7-2.3,0.7c-0.5,0-0.9,0-1.2-0.1L90.5,28.7L90.5,28.7z"/>
	</g>
	<polygon class="st0" points="102.1,31.3 100.1,31.3 100.1,33.2 102.4,33.2 102.4,33.7 99.5,33.7 99.5,28.6 102.3,28.6 102.3,29.1 
		100.1,29.1 100.1,30.8 102.1,30.8 	"/>
	<path class="st0" d="M111.4,31.5c0-0.7-0.1-1.6-0.1-2.2h0c-0.2,0.6-0.4,1.2-0.7,2l-0.9,2.5h-0.5l-0.8-2.5c-0.2-0.7-0.5-1.4-0.6-2h0
		c0,0.6-0.1,1.5-0.1,2.3l-0.1,2.2h-0.6l0.4-5.2h0.9l0.9,2.5c0.2,0.6,0.4,1.2,0.5,1.7h0c0.1-0.5,0.3-1.1,0.5-1.7l0.9-2.5h0.9l0.3,5.2
		h-0.6L111.4,31.5z"/>
	<path class="st0" d="M118.2,33.7v-2.2l-1.6-3h0.8L118,30c0.2,0.4,0.4,0.7,0.5,1.1h0c0.1-0.3,0.3-0.7,0.5-1.1l0.7-1.4h0.8l-1.7,3
		v2.2H118.2z"/>
	<path class="st0" d="M46.2,5.7c1,1.5,2,3,2.8,4.7c0.7,1.2,1.3,2.4,1.9,3.6h-5.5l-0.1-1.5c0-0.9-0.1-1.9-0.2-2.8L45,8.2l-0.1-1.4
		l-0.2-3C45.2,4.4,45.7,5,46.2,5.7 M13.9,23.7L13.9,23.7C13.9,23.7,13.9,23.7,13.9,23.7 M6.9,23.9L6.9,23.9
		C6.9,23.9,6.9,23.9,6.9,23.9C6.9,23.9,6.9,23.9,6.9,23.9 M0.1,24.8L0.1,24.8C0,24.8,0.1,24.8,0.1,24.8 M117.9,25
		c-0.9-0.2-1.8-0.3-2.8-0.4c-1.9-0.2-3.7-0.4-5.6-0.5c-3.7-0.3-7.4-0.4-11.2-0.5c-3.7-0.1-7.5-0.2-11.2-0.2c-1.9,0-3.7,0-5.6,0h-2.8
		l-2.8,0c-1.9,0-3.7,0-5.6,0l-2.8-0.1c-0.9,0-1.8-0.1-2.8-0.1C64,23,63,22.9,62.1,22.8c-0.5,0-0.9-0.1-1.3-0.2l-0.2,0l-0.1,0
		c0,0-0.1,0-0.1,0l0,0l-0.1,0c-0.1,0-0.3-0.1-0.5-0.2c-0.6-0.3-1.3-0.9-1.8-1.5c-0.6-0.6-1.1-1.3-1.6-2.1c-0.5-0.7-1-1.5-1.4-2.3
		c-0.2-0.4-0.4-0.8-0.6-1.2l-0.6-1.3c-0.8-1.7-1.6-3.4-2.5-5.1c-0.9-1.7-1.9-3.3-3-4.9c-0.6-0.8-1.1-1.6-1.8-2.4
		c-0.4-0.4-0.7-0.8-1.3-1.1c-0.3-0.2-0.5-0.4-0.9-0.5C44,0,43.5-0.1,42.9,0l-1.2,0.2l0.1,1.2L42.2,7l0.2,2.8
		c0.1,0.9,0.1,1.9,0.2,2.8l0.1,2.8l0.1,2.8l0,1.4c0,0.5,0,0.9,0,1.4c0,0.5,0,0.9,0,1.4c0,0.1,0,0.1,0,0.2c-0.8,0.1-1.6,0.1-2.4,0.2
		c-1.2,0.1-2.4,0.1-3.6,0.2c-1.2,0.1-2.4,0.1-3.6,0.2c-1.2,0.1-2.4,0.1-3.6,0.1l-7.2,0.2l-3.6,0.1c-1.2,0-2.4,0.1-3.6,0.1l-1.7,0.1
		c0,0-0.1-0.1-0.1-0.1c-0.1-0.2-0.3-0.4-0.4-0.7c-0.6-1-1.1-2.1-1.6-3.1c-0.5-1.1-1-2.2-1.7-3.3c-0.1-0.1-0.2-0.3-0.3-0.4
		c-0.1-0.1-0.2-0.3-0.5-0.5c-0.1-0.1-0.3-0.2-0.7-0.2c0.1,0-0.2,0-0.1,0l0,0l0,0c0,0-0.1,0-0.1,0c-0.1,0-0.1,0-0.1,0.1
		c-0.1,0.1-0.2,0.1-0.3,0.2c-0.1,0.1-0.2,0.3-0.3,0.4c-0.1,0.1-0.1,0.2-0.1,0.3c-0.1,0.4-0.2,0.7-0.2,1c0,0.3-0.1,0.6-0.1,0.9
		C7,19.5,7,20.7,6.9,21.8c0,0.6-0.1,1.2-0.2,1.7c0,0.1-0.1,0.3-0.1,0.4c0,0,0,0,0,0.1l-0.4,0c-1.2,0.1-2.4,0.2-3.6,0.3l-1.8,0.2
		l-0.4,0.1l-0.2,0l-0.1,0l0,0c0,0,0,0,0,0l0,0c0,0,0,0,0,0c0,0,0,0-0.1,0c0,0.4,0,0.1,0,0.2l0,0l0.1,0l0.1,0l0.2,0l0.4,0
		C1.5,24.9,2.1,25,2.7,25c1.2,0.1,2.4,0.2,3.6,0.2l0.4,0l0.1,0l0.1,0c0,0,0,0,0.1,0c0.2,0,0.3-0.1,0.4-0.1c0.1,0,0.1-0.1,0.1-0.1
		c0,0,0.1-0.1,0.1-0.1c0.2-0.3,0.3-0.5,0.3-0.6C8,24.1,8.1,24,8.1,23.8c0.1-0.6,0.2-1.3,0.2-1.9c0.1-1.2,0.1-2.4,0.3-3.6
		c0-0.3,0.1-0.6,0.1-0.8c0,0,0-0.1,0-0.1c0.5,0.9,1,2,1.5,3c0.5,1.1,1,2.2,1.6,3.3c0.2,0.3,0.3,0.6,0.5,0.8c0.1,0.1,0.2,0.3,0.4,0.5
		c0.1,0,0.1,0.1,0.2,0.1c0,0,0.1,0.1,0.1,0.1l0.1,0c0,0,0.1,0,0.1,0c0.1,0,0.1,0,0.2,0l0,0l0,0c0,0-0.1,0,0.1,0h0h0.1l1.8,0
		c1.2,0,2.4,0,3.6,0l3.6,0l3.6,0l1.8,0l1.8,0c1.2,0,2.4,0,3.6,0c1.2,0,2.4,0,3.6-0.1c1.2,0,2.4-0.1,3.6-0.1c1.2-0.1,2.4-0.2,3.6-0.2
		l1.1-0.1l0.1-1.1c0-0.6,0-1,0.1-1.5c0-0.5,0-0.9,0-1.4c0-0.5,0-0.9,0-1.4l0-1.4L45.5,16h6.5l0.2,0.5c0.2,0.5,0.5,0.9,0.7,1.3
		c0.5,0.8,1,1.7,1.6,2.5c0.6,0.8,1.2,1.6,1.9,2.3c0.7,0.7,1.5,1.4,2.5,2c0.3,0.1,0.5,0.2,0.8,0.3c0.1,0,0.1,0,0.2,0.1l0.1,0l0.1,0
		l0.2,0l0.2,0c0.5,0,1,0.1,1.4,0.1c1,0.1,1.9,0.1,2.8,0.1c0.9,0,1.9,0,2.8,0l2.8,0c1.9-0.1,3.8-0.1,5.6-0.2l2.8-0.2l2.8-0.1l5.6-0.1
		c3.7-0.1,7.4-0.1,11.2-0.1c3.7,0,7.4,0,11.2,0.1c1.9,0.1,3.7,0.1,5.6,0.3c0.9,0.1,1.9,0.1,2.8,0.3c0.9,0.1,1.8,0.3,2.7,0.6
		C119.7,25.4,118.8,25.2,117.9,25"/>
</g>
</svg>
