<svg id="Calque_1" data-name="Calque 1" xmlns="http://www.w3.org/2000/svg" viewBox="0 0 54.5 46.5"><defs><style>.cls-1{fill:#1f285c;stroke:#1f285c;stroke-miterlimit:10;stroke-width:1.5px;}</style></defs><g id="Ebene_1" data-name="Ebene 1"><path class="cls-1" d="M54,27.5H41.7L38.5,9.9c0-.2-.3-.4-.5-.4H30a.47.47,0,0,0-.5.5V27.5H15.4l-.9-3.6a.66.66,0,0,0-.5-.4H6a.52.52,0,0,0-.4.2.6.6,0,0,0-.1.4l2,7.9-2,7.9a.6.6,0,0,0,.1.4.52.52,0,0,0,.4.2h8a.66.66,0,0,0,.5-.4l.9-3.6H29.5V54a.47.47,0,0,0,.5.5h8a.66.66,0,0,0,.5-.4l3.2-17.6H54a4.5,4.5,0,0,0,0-9Zm0,8H41.3a.66.66,0,0,0-.5.4L37.6,53.5H30.5V36a.47.47,0,0,0-.5-.5H15a.66.66,0,0,0-.5.4l-.9,3.6h-7l1.8-7.4v-.2L6.6,24.5h7l.9,3.6a.66.66,0,0,0,.5.4H30a.47.47,0,0,0,.5-.5V10.5h7.1l3.2,17.6c0,.2.3.4.5.4H54a3.5,3.5,0,0,1,0,7Z" transform="translate(-4.75 -8.75)"/><path class="cls-1" d="M22,14.5h4a.5.5,0,0,0,0-1H22a.5.5,0,0,0,0,1Z" transform="translate(-4.75 -8.75)"/><path class="cls-1" d="M12,14.5h4a.5.5,0,0,0,0-1H12a.5.5,0,0,0,0,1Z" transform="translate(-4.75 -8.75)"/><path class="cls-1" d="M26,47.5H22a.5.5,0,0,0,0,1h4a.5.5,0,0,0,0-1Z" transform="translate(-4.75 -8.75)"/><path class="cls-1" d="M16,47.5H12a.5.5,0,0,0,0,1h4a.5.5,0,0,0,0-1Z" transform="translate(-4.75 -8.75)"/></g></svg>